<mxfile host="app.diagrams.net" agent="Mozilla/5.0 (Windows NT 10.0; Win64; x64) AppleWebKit/537.36 (KHTML, like Gecko) Chrome/130.0.0.0 Safari/537.36" version="24.7.16">
  <diagram name="Page-1" id="mSVlHit8UouSsQJ7FHQR">
    <mxGraphModel dx="1678" dy="919" grid="1" gridSize="10" guides="1" tooltips="1" connect="1" arrows="1" fold="1" page="1" pageScale="1" pageWidth="850" pageHeight="1100" math="0" shadow="0">
      <root>
        <mxCell id="0" />
        <mxCell id="1" parent="0" />
        <mxCell id="4XnCa2Ve68tpd8KsoyeB-1" value="User" style="shape=umlActor;verticalLabelPosition=bottom;verticalAlign=top;html=1;outlineConnect=0;" vertex="1" parent="1">
          <mxGeometry x="160" y="200" width="30" height="60" as="geometry" />
        </mxCell>
        <mxCell id="4XnCa2Ve68tpd8KsoyeB-2" value="Paypal" style="shape=umlActor;verticalLabelPosition=bottom;verticalAlign=top;html=1;outlineConnect=0;" vertex="1" parent="1">
          <mxGeometry x="890" y="200" width="30" height="60" as="geometry" />
        </mxCell>
        <mxCell id="4XnCa2Ve68tpd8KsoyeB-4" value="" style="swimlane;startSize=0;" vertex="1" parent="1">
          <mxGeometry x="290" y="20" width="490" height="470" as="geometry" />
        </mxCell>
        <mxCell id="4XnCa2Ve68tpd8KsoyeB-5" value="Order&lt;div&gt;&lt;br&gt;&lt;/div&gt;" style="text;html=1;align=center;verticalAlign=middle;resizable=0;points=[];autosize=1;strokeColor=none;fillColor=none;" vertex="1" parent="4XnCa2Ve68tpd8KsoyeB-4">
          <mxGeometry x="220" y="15" width="50" height="40" as="geometry" />
        </mxCell>
        <mxCell id="4XnCa2Ve68tpd8KsoyeB-6" value="Choose Restaurant" style="ellipse;whiteSpace=wrap;html=1;" vertex="1" parent="4XnCa2Ve68tpd8KsoyeB-4">
          <mxGeometry x="20" y="175" width="90" height="70" as="geometry" />
        </mxCell>
        <mxCell id="4XnCa2Ve68tpd8KsoyeB-7" value="Pick dishes" style="ellipse;whiteSpace=wrap;html=1;" vertex="1" parent="4XnCa2Ve68tpd8KsoyeB-4">
          <mxGeometry x="90" y="290" width="90" height="70" as="geometry" />
        </mxCell>
        <mxCell id="4XnCa2Ve68tpd8KsoyeB-9" value="" style="endArrow=classic;html=1;rounded=0;exitX=0.5;exitY=1;exitDx=0;exitDy=0;entryX=0;entryY=0;entryDx=0;entryDy=0;" edge="1" parent="4XnCa2Ve68tpd8KsoyeB-4" source="4XnCa2Ve68tpd8KsoyeB-6" target="4XnCa2Ve68tpd8KsoyeB-7">
          <mxGeometry width="50" height="50" relative="1" as="geometry">
            <mxPoint x="130" y="260" as="sourcePoint" />
            <mxPoint x="180" y="210" as="targetPoint" />
          </mxGeometry>
        </mxCell>
        <mxCell id="4XnCa2Ve68tpd8KsoyeB-10" value="" style="endArrow=classic;html=1;rounded=0;entryX=0;entryY=0.5;entryDx=0;entryDy=0;dashed=1;" edge="1" parent="4XnCa2Ve68tpd8KsoyeB-4" source="4XnCa2Ve68tpd8KsoyeB-7" target="4XnCa2Ve68tpd8KsoyeB-62">
          <mxGeometry width="50" height="50" relative="1" as="geometry">
            <mxPoint x="70" y="304.44" as="sourcePoint" />
            <mxPoint x="-40" y="365.5511111111111" as="targetPoint" />
          </mxGeometry>
        </mxCell>
        <mxCell id="4XnCa2Ve68tpd8KsoyeB-15" style="edgeStyle=orthogonalEdgeStyle;rounded=0;orthogonalLoop=1;jettySize=auto;html=1;dashed=1;" edge="1" parent="4XnCa2Ve68tpd8KsoyeB-4" source="4XnCa2Ve68tpd8KsoyeB-11" target="4XnCa2Ve68tpd8KsoyeB-13">
          <mxGeometry relative="1" as="geometry" />
        </mxCell>
        <mxCell id="4XnCa2Ve68tpd8KsoyeB-11" value="Add to cart" style="ellipse;whiteSpace=wrap;html=1;" vertex="1" parent="4XnCa2Ve68tpd8KsoyeB-4">
          <mxGeometry x="210" y="175" width="90" height="70" as="geometry" />
        </mxCell>
        <mxCell id="4XnCa2Ve68tpd8KsoyeB-13" value="Order and Pay" style="ellipse;whiteSpace=wrap;html=1;" vertex="1" parent="4XnCa2Ve68tpd8KsoyeB-4">
          <mxGeometry x="380" y="175" width="90" height="70" as="geometry" />
        </mxCell>
        <mxCell id="4XnCa2Ve68tpd8KsoyeB-58" value="&amp;lt;&amp;lt;extend&amp;gt;&amp;gt;" style="text;html=1;align=center;verticalAlign=middle;resizable=0;points=[];autosize=1;strokeColor=none;fillColor=none;" vertex="1" parent="4XnCa2Ve68tpd8KsoyeB-4">
          <mxGeometry x="290" y="180" width="90" height="30" as="geometry" />
        </mxCell>
        <mxCell id="4XnCa2Ve68tpd8KsoyeB-62" value="Adjust quantity" style="ellipse;whiteSpace=wrap;html=1;" vertex="1" parent="4XnCa2Ve68tpd8KsoyeB-4">
          <mxGeometry x="270" y="310" width="90" height="70" as="geometry" />
        </mxCell>
        <mxCell id="4XnCa2Ve68tpd8KsoyeB-74" value="&amp;lt;&amp;lt;extend&amp;gt;&amp;gt;" style="text;html=1;align=center;verticalAlign=middle;resizable=0;points=[];autosize=1;strokeColor=none;fillColor=none;" vertex="1" parent="4XnCa2Ve68tpd8KsoyeB-4">
          <mxGeometry x="170" y="290" width="90" height="30" as="geometry" />
        </mxCell>
        <mxCell id="4XnCa2Ve68tpd8KsoyeB-75" value="" style="endArrow=classic;html=1;rounded=0;exitX=1;exitY=0;exitDx=0;exitDy=0;entryX=0;entryY=1;entryDx=0;entryDy=0;" edge="1" parent="4XnCa2Ve68tpd8KsoyeB-4" source="4XnCa2Ve68tpd8KsoyeB-7" target="4XnCa2Ve68tpd8KsoyeB-11">
          <mxGeometry width="50" height="50" relative="1" as="geometry">
            <mxPoint x="75" y="255" as="sourcePoint" />
            <mxPoint x="113" y="310" as="targetPoint" />
          </mxGeometry>
        </mxCell>
        <mxCell id="4XnCa2Ve68tpd8KsoyeB-76" value="" style="endArrow=classic;html=1;rounded=0;exitX=0.5;exitY=0;exitDx=0;exitDy=0;entryX=1;entryY=1;entryDx=0;entryDy=0;" edge="1" parent="4XnCa2Ve68tpd8KsoyeB-4" source="4XnCa2Ve68tpd8KsoyeB-62" target="4XnCa2Ve68tpd8KsoyeB-11">
          <mxGeometry width="50" height="50" relative="1" as="geometry">
            <mxPoint x="177" y="310" as="sourcePoint" />
            <mxPoint x="300" y="270" as="targetPoint" />
          </mxGeometry>
        </mxCell>
        <mxCell id="4XnCa2Ve68tpd8KsoyeB-8" value="" style="endArrow=classic;html=1;rounded=0;entryX=0;entryY=0.5;entryDx=0;entryDy=0;" edge="1" parent="1" source="4XnCa2Ve68tpd8KsoyeB-1" target="4XnCa2Ve68tpd8KsoyeB-6">
          <mxGeometry width="50" height="50" relative="1" as="geometry">
            <mxPoint x="400" y="330" as="sourcePoint" />
            <mxPoint x="450" y="280" as="targetPoint" />
          </mxGeometry>
        </mxCell>
        <mxCell id="4XnCa2Ve68tpd8KsoyeB-16" value="" style="endArrow=classic;html=1;rounded=0;entryX=1;entryY=0.5;entryDx=0;entryDy=0;" edge="1" parent="1" source="4XnCa2Ve68tpd8KsoyeB-2" target="4XnCa2Ve68tpd8KsoyeB-13">
          <mxGeometry width="50" height="50" relative="1" as="geometry">
            <mxPoint x="740" y="330" as="sourcePoint" />
            <mxPoint x="790" y="280" as="targetPoint" />
          </mxGeometry>
        </mxCell>
        <mxCell id="4XnCa2Ve68tpd8KsoyeB-17" value="" style="swimlane;startSize=0;" vertex="1" parent="1">
          <mxGeometry x="290" y="580" width="490" height="470" as="geometry" />
        </mxCell>
        <mxCell id="4XnCa2Ve68tpd8KsoyeB-18" value="&lt;div&gt;Order Management&lt;/div&gt;" style="text;html=1;align=center;verticalAlign=middle;resizable=0;points=[];autosize=1;strokeColor=none;fillColor=none;" vertex="1" parent="4XnCa2Ve68tpd8KsoyeB-17">
          <mxGeometry x="180" y="20" width="130" height="30" as="geometry" />
        </mxCell>
        <mxCell id="4XnCa2Ve68tpd8KsoyeB-26" value="View Orders" style="ellipse;whiteSpace=wrap;html=1;" vertex="1" parent="4XnCa2Ve68tpd8KsoyeB-17">
          <mxGeometry x="60" y="185" width="90" height="70" as="geometry" />
        </mxCell>
        <mxCell id="4XnCa2Ve68tpd8KsoyeB-29" value="View Status" style="ellipse;whiteSpace=wrap;html=1;" vertex="1" parent="4XnCa2Ve68tpd8KsoyeB-17">
          <mxGeometry x="210" y="280" width="90" height="70" as="geometry" />
        </mxCell>
        <mxCell id="4XnCa2Ve68tpd8KsoyeB-30" value="" style="endArrow=classic;html=1;rounded=0;exitX=1;exitY=1;exitDx=0;exitDy=0;entryX=0;entryY=0;entryDx=0;entryDy=0;dashed=1;" edge="1" parent="4XnCa2Ve68tpd8KsoyeB-17" source="4XnCa2Ve68tpd8KsoyeB-26" target="4XnCa2Ve68tpd8KsoyeB-29">
          <mxGeometry width="50" height="50" relative="1" as="geometry">
            <mxPoint x="120" y="254" as="sourcePoint" />
            <mxPoint x="210" y="110" as="targetPoint" />
          </mxGeometry>
        </mxCell>
        <mxCell id="4XnCa2Ve68tpd8KsoyeB-31" value="Cancel Order" style="ellipse;whiteSpace=wrap;html=1;" vertex="1" parent="4XnCa2Ve68tpd8KsoyeB-17">
          <mxGeometry x="370" y="185" width="90" height="70" as="geometry" />
        </mxCell>
        <mxCell id="4XnCa2Ve68tpd8KsoyeB-32" value="" style="endArrow=classic;html=1;rounded=0;exitX=1;exitY=0;exitDx=0;exitDy=0;dashed=1;" edge="1" parent="4XnCa2Ve68tpd8KsoyeB-17" source="4XnCa2Ve68tpd8KsoyeB-29" target="4XnCa2Ve68tpd8KsoyeB-31">
          <mxGeometry width="50" height="50" relative="1" as="geometry">
            <mxPoint x="160" y="160" as="sourcePoint" />
            <mxPoint x="210" y="110" as="targetPoint" />
          </mxGeometry>
        </mxCell>
        <mxCell id="4XnCa2Ve68tpd8KsoyeB-57" value="&amp;lt;&amp;lt;extend&amp;gt;&amp;gt;" style="text;html=1;align=center;verticalAlign=middle;resizable=0;points=[];autosize=1;strokeColor=none;fillColor=none;" vertex="1" parent="4XnCa2Ve68tpd8KsoyeB-17">
          <mxGeometry x="320" y="260" width="90" height="30" as="geometry" />
        </mxCell>
        <mxCell id="4XnCa2Ve68tpd8KsoyeB-77" value="&amp;lt;&amp;lt;extend&amp;gt;&amp;gt;" style="text;html=1;align=center;verticalAlign=middle;resizable=0;points=[];autosize=1;strokeColor=none;fillColor=none;" vertex="1" parent="4XnCa2Ve68tpd8KsoyeB-17">
          <mxGeometry x="110" y="270" width="90" height="30" as="geometry" />
        </mxCell>
        <mxCell id="4XnCa2Ve68tpd8KsoyeB-28" style="edgeStyle=orthogonalEdgeStyle;rounded=0;orthogonalLoop=1;jettySize=auto;html=1;" edge="1" parent="1" source="4XnCa2Ve68tpd8KsoyeB-27" target="4XnCa2Ve68tpd8KsoyeB-26">
          <mxGeometry relative="1" as="geometry" />
        </mxCell>
        <mxCell id="4XnCa2Ve68tpd8KsoyeB-27" value="User" style="shape=umlActor;verticalLabelPosition=bottom;verticalAlign=top;html=1;outlineConnect=0;" vertex="1" parent="1">
          <mxGeometry x="180" y="770" width="30" height="60" as="geometry" />
        </mxCell>
        <mxCell id="4XnCa2Ve68tpd8KsoyeB-33" value="User" style="shape=umlActor;verticalLabelPosition=bottom;verticalAlign=top;html=1;outlineConnect=0;" vertex="1" parent="1">
          <mxGeometry x="190" y="1230" width="30" height="60" as="geometry" />
        </mxCell>
        <mxCell id="4XnCa2Ve68tpd8KsoyeB-34" value="" style="swimlane;startSize=0;" vertex="1" parent="1">
          <mxGeometry x="290" y="1120" width="390" height="340" as="geometry" />
        </mxCell>
        <mxCell id="4XnCa2Ve68tpd8KsoyeB-35" value="&lt;div&gt;Access Control&lt;/div&gt;" style="text;html=1;align=center;verticalAlign=middle;resizable=0;points=[];autosize=1;strokeColor=none;fillColor=none;" vertex="1" parent="4XnCa2Ve68tpd8KsoyeB-34">
          <mxGeometry x="135" y="10" width="100" height="30" as="geometry" />
        </mxCell>
        <mxCell id="4XnCa2Ve68tpd8KsoyeB-37" value="Login" style="ellipse;whiteSpace=wrap;html=1;" vertex="1" parent="4XnCa2Ve68tpd8KsoyeB-34">
          <mxGeometry x="70" y="110" width="90" height="70" as="geometry" />
        </mxCell>
        <mxCell id="4XnCa2Ve68tpd8KsoyeB-39" value="Logout" style="ellipse;whiteSpace=wrap;html=1;" vertex="1" parent="4XnCa2Ve68tpd8KsoyeB-34">
          <mxGeometry x="270" y="110" width="90" height="70" as="geometry" />
        </mxCell>
        <mxCell id="4XnCa2Ve68tpd8KsoyeB-55" value="" style="endArrow=classic;html=1;rounded=0;entryX=0;entryY=0.5;entryDx=0;entryDy=0;exitX=1;exitY=0.5;exitDx=0;exitDy=0;dashed=1;" edge="1" parent="4XnCa2Ve68tpd8KsoyeB-34" source="4XnCa2Ve68tpd8KsoyeB-37" target="4XnCa2Ve68tpd8KsoyeB-39">
          <mxGeometry width="50" height="50" relative="1" as="geometry">
            <mxPoint x="60" y="330" as="sourcePoint" />
            <mxPoint x="110" y="280" as="targetPoint" />
          </mxGeometry>
        </mxCell>
        <mxCell id="4XnCa2Ve68tpd8KsoyeB-56" value="&amp;lt;&amp;lt;extend&amp;gt;&amp;gt;" style="text;html=1;align=center;verticalAlign=middle;resizable=0;points=[];autosize=1;strokeColor=none;fillColor=none;" vertex="1" parent="4XnCa2Ve68tpd8KsoyeB-34">
          <mxGeometry x="170" y="120" width="90" height="30" as="geometry" />
        </mxCell>
        <mxCell id="4XnCa2Ve68tpd8KsoyeB-52" value="" style="endArrow=classic;html=1;rounded=0;entryX=0;entryY=0.5;entryDx=0;entryDy=0;" edge="1" parent="1" source="4XnCa2Ve68tpd8KsoyeB-33" target="4XnCa2Ve68tpd8KsoyeB-37">
          <mxGeometry width="50" height="50" relative="1" as="geometry">
            <mxPoint x="230" y="1290" as="sourcePoint" />
            <mxPoint x="400" y="1400" as="targetPoint" />
          </mxGeometry>
        </mxCell>
      </root>
    </mxGraphModel>
  </diagram>
</mxfile>
